<svg xmlns:xlink="http://www.w3.org/1999/xlink" xmlns="http://www.w3.org/2000/svg" viewBox="0 0 44.6 44.6" aria-hidden="true" class="absolute fill-current h-full inset-0 w-full" focusable="false" width="44.6"  height="44.6" ><path d="M29.5 4.5C25.2.2 18.2.2 13.9 4.5c-4.3 4.3-4.3 11.3 0 15.6 6.6 7.6 6.3 12.7 7.8 12.7s1.2-5.1 7.8-12.7c4.3-4.3 4.3-11.3 0-15.6m-7.7 13c-3 0-5.5-2.5-5.5-5.5s2.5-5.5 5.5-5.5S27.3 9 27.3 12c0 3.1-2.5 5.5-5.5 5.5" fill="#FFFFFF"></path><path d="M17.3 43.2h-.1c-3-.8-6-1.8-8.9-2.9-.2 0-.3-.2-.3-.5l1.7-18.7c0-.2.1-.3.2-.4.1-.1.3-.1.4 0 2.5 1 5 1.9 7.5 2.7 2.5-.7 5.1-1.4 7.6-2.3h.3c2.6.7 5.2 1.3 7.8 1.8.2 0 .4.2.4.4L35.7 42v.2c0 .3-.2.5-.5.5h-.1c-2.9-.5-5.9-1.1-8.9-1.8-2.9.9-5.8 1.6-8.8 2.3h-.1zM9 39.5c2.8 1 5.6 1.9 8.3 2.7 2.9-.7 5.8-1.4 8.7-2.3h.3c2.7.6 5.5 1.2 8.3 1.7L33 23.9c-2.5-.5-4.9-1.1-7.4-1.7-2.5.8-5.1 1.6-7.6 2.3h-.3c-2.4-.8-4.8-1.6-7.1-2.5L9 39.5z" fill="#FFFFFF"></path><path d="M17.7 23.4h1l-.3 10-.3 10h-1l.3-10zm7.1-1l.1 9 .2 9h-1l-.2-9-.1-9h.5z" fill="#FFFFFF"></path></svg>