<svg width="0" height="0" class="hidden"><symbol xmlns="http://www.w3.org/2000/svg" xmlns:vectornator="http://vectornator.io" xmlns:xlink="http://www.w3.org/1999/xlink" id="logos-star-tour" fill="currentColor" stroke-miterlimit="10" style="fill-rule:nonzero;clip-rule:evenodd;stroke-linecap:round;stroke-linejoin:round" role="img" version="1.1" viewBox="0 0 512 512" xml:space="preserve"><defs><clipPath id="TextBounds"><rect width="391.848" height="161.942" x="187.795" y="192.78"/></clipPath><clipPath id="TextBounds_3"><rect width="391.848" height="161.942" x="60.076" y="94.896"/></clipPath></defs><clipPath id="ArtboardFrame"><rect width="512" height="512" x="0" y="0"/></clipPath><g id="Calque-1" clip-path="url(#ArtboardFrame)" vectornator:layerName="Calque 1"><g stroke="none" opacity="1"><path fill-rule="evenodd" d="M251.317 248.849L251.317 270.567L228.185 270.567L228.185 321.78L204.447 321.78L204.447 270.567L181.315 270.567L181.315 248.849L251.317 248.849Z" clip-path="url(#TextBounds)"/><path fill-rule="evenodd" d="M327.582 285.719C327.582 293.699 325.915 300.5 322.582 306.123C319.248 311.746 314.425 315.972 308.111 318.801C301.798 321.629 294.264 323.043 285.51 323.043C276.755 323.043 269.238 321.62 262.958 318.775C256.679 315.93 251.923 311.721 248.69 306.149C245.458 300.576 243.842 293.766 243.842 285.719C243.842 279.624 244.768 274.262 246.62 269.632C248.471 265.003 251.182 261.105 254.751 257.94C258.32 254.775 262.698 252.376 267.883 250.743C273.068 249.11 278.944 248.293 285.51 248.293C294.23 248.293 301.756 249.733 308.086 252.612C314.416 255.491 319.248 259.733 322.582 265.339C325.915 270.946 327.582 277.739 327.582 285.719ZM269.752 285.921C269.752 290.601 270.804 294.675 272.908 298.143C275.013 301.611 279.163 303.346 285.358 303.346C290.139 303.346 293.717 302.436 296.091 300.618C298.465 298.8 299.946 296.721 300.535 294.381C301.125 292.04 301.52 289.221 301.722 285.921C301.52 281.24 300.392 277.158 298.338 273.673C296.284 270.188 291.958 268.445 285.358 268.445C274.954 268.445 269.752 274.271 269.752 285.921Z" clip-path="url(#TextBounds)"/><path fill-rule="evenodd" d="M352.279 248.849L352.279 291.982C352.077 296.898 353.02 300.315 355.108 302.234C357.195 304.154 360.461 305.181 364.906 305.315C368.475 305.248 371.455 304.204 373.846 302.184C376.236 300.164 377.364 296.763 377.23 291.982L377.23 248.849L400.968 248.849L400.968 291.628C400.867 297.689 399.865 302.529 397.963 306.149C396.06 309.768 393.653 312.79 390.74 315.215C387.828 317.639 384.174 319.524 379.78 320.871C375.386 322.218 370.495 322.959 365.108 323.094C360.63 322.993 356.076 322.378 351.446 321.25C346.816 320.122 342.776 318.346 339.324 315.922C335.873 313.497 333.213 310.383 331.344 306.578C329.476 302.773 328.541 297.807 328.541 291.678L328.541 248.849L352.279 248.849Z" clip-path="url(#TextBounds)"/><path fill-rule="evenodd" d="M404.503 321.78L404.503 248.849L451.979 248.849C457.838 249.388 462.653 250.936 466.424 253.495C470.195 256.055 472.957 259.489 474.707 263.799C476.054 270.264 476.122 275.247 474.909 278.749C473.697 282.251 471.576 285.18 468.546 287.537C465.515 289.894 461.172 291.746 455.515 293.093L460.97 300.063L482.788 300.063L482.788 321.78L454 321.78L430.868 297.689L430.868 321.78L404.503 321.78ZM430.868 267.031L430.868 280.466L449.252 280.466C450.229 280.466 451.289 280.104 452.434 279.38C453.579 278.656 454.185 276.83 454.252 273.9C454.084 271.105 453.402 269.262 452.207 268.37C451.011 267.477 450.01 267.031 449.202 267.031L430.868 267.031Z" clip-path="url(#TextBounds)"/></g><g stroke="none" opacity="1"><path fill-rule="evenodd" d="M127.134 172.682L104.204 172.682C95.5501 172.413 94.2706 174.803 100.365 179.854C111.274 189.417 116.628 198.71 116.426 207.734C116.224 216.757 110.87 222.145 100.365 223.896L36.7267 223.896L36.7267 202.178L76.93 202.178C86.4589 202.447 87.671 199.787 80.5664 194.198C68.8489 183.423 63.8656 173.524 65.6165 164.5C67.3674 155.476 72.8894 150.964 82.1826 150.964L127.134 150.964L127.134 172.682Z" clip-path="url(#TextBounds_3)"/><path fill-rule="evenodd" d="M188.398 150.964L188.398 172.682L165.266 172.682L165.266 223.896L141.528 223.896L141.528 172.682L118.396 172.682L118.396 150.964L188.398 150.964Z" clip-path="url(#TextBounds_3)"/><path fill-rule="evenodd" d="M183.852 223.896L207.843 150.964L244.056 150.964L268.451 223.896L240.874 223.896L236.278 210.764L214.611 210.764L210.015 223.896L183.852 223.896ZM226.025 167.126L215.571 196.016L235.672 196.016L226.025 167.126Z" clip-path="url(#TextBounds_3)"/><path fill-rule="evenodd" d="M267.441 223.896L267.441 150.964L314.917 150.964C320.776 151.503 325.591 153.052 329.362 155.611C333.133 158.17 335.894 161.604 337.645 165.914C338.992 172.379 339.059 177.362 337.847 180.864C336.635 184.366 334.514 187.295 331.483 189.652C328.453 192.009 324.109 193.861 318.453 195.208L323.907 202.178L345.726 202.178L345.726 223.896L316.937 223.896L293.805 199.804L293.805 223.896L267.441 223.896ZM293.805 169.147L293.805 182.581L312.19 182.581C313.166 182.581 314.227 182.219 315.372 181.495C316.516 180.771 317.123 178.945 317.19 176.015C317.022 173.221 316.34 171.377 315.144 170.485C313.949 169.593 312.947 169.147 312.139 169.147L293.805 169.147Z" clip-path="url(#TextBounds_3)"/></g></g></symbol><symbol xmlns="http://www.w3.org/2000/svg" id="logos-menu-burger" fill="currentColor" role="img" viewBox="0 0 16 16"><path d="M 1 2 L 1 3 L 14 3 L 14 2 Z M 1 7 L 1 8 L 14 8 L 14 7 Z M 1 12 L 1 13 L 14 13 L 14 12 Z"/></symbol><symbol xmlns="http://www.w3.org/2000/svg" id="logos-linkedin" fill="currentColor" role="img" viewBox="0 0 48 48"><path d="M8.421 14h.052 0C11.263 14 13 12 13 9.5 12.948 6.945 11.263 5 8.526 5 5.789 5 4 6.945 4 9.5 4 12 5.736 14 8.421 14zM4 17H13V43H4zM44 26.5c0-5.247-4.253-9.5-9.5-9.5-3.053 0-5.762 1.446-7.5 3.684V17h-9v26h9V28h0c0-2.209 1.791-4 4-4s4 1.791 4 4v15h9C44 43 44 27.955 44 26.5z"/></symbol><symbol xmlns="http://www.w3.org/2000/svg" xmlns:xlink="http://www.w3.org/1999/xlink" id="logos-twitter" fill="currentColor" aria-hidden="true" focusable="false" role="img" viewBox="0 0 500 405.4"><path d="M500 48.3c-19.3 7.7-38.6 13.5-59.8 15.4 21.2-13.5 36.7-32.8 44.4-56-19.3 11.6-42.5 21.2-65.6 25.1C399.6 13.5 374.5 0 343.6 0c-56 0-102.3 46.3-102.3 102.3 0 7.7 0 15.4 1.9 23.2-83-3.9-158.3-44.4-208.5-106.2C25 34.7 21.2 52.1 21.2 69.5c0 34.7 17.4 67.6 46.3 84.9-17.4 0-32.8-3.9-48.3-11.6v1.9c0 50.2 34.7 90.7 83 100.4-7.7 1.9-17.4 3.9-27 3.9-5.8 0-13.5 0-19.3-1.9 13.5 40.5 50.2 69.5 96.5 71.4-34.7 27-79.2 44.4-127.4 44.4-7.7 0-17.4 0-25.1-1.9 46.3 29 98.5 44.4 156.4 44.4 189.2 0 291.5-156.4 291.5-291.5v-13.5c21.3-13.5 38.7-30.9 52.2-52.1z"/></symbol><symbol xmlns="http://www.w3.org/2000/svg" xmlns:xlink="http://www.w3.org/1999/xlink" id="logos-phone" fill="currentColor" aria-hidden="true" focusable="false" role="img" viewBox="0 0 500 747.2"><path d="M239.2 597.2c-5.1-5-14.2-6.1-20.3-2.3l-48.3 30.3c-6.2 3.8-14.1 2-17.9-4.1L84.6 512.7c-3.8-6.1-1.9-14.1 4.1-17.9l45.4-28.5c6.1-3.8 8.8-12.3 6.1-19L94.8 336.5c-2.7-6.6-10.2-9.5-16.7-6.4 0 0-62 29.6-70.8 67.9C-28.4 554.6 69.4 710.5 226 746.4c38.3 8.8 91.6-52.9 91.6-52.9 4.7-5.5 4.4-14-.7-19l-77.7-77.3zm-22.3-114.3c-6.2 0-11.1-5-11.1-11.1 0-6.2 5-11.1 11.1-11.1 20.1 0 37.8-16.8 37.8-35.9 0-11-3.2-24.2-10.2-28.1C157 372.7 96 292.8 96 202 96 90.6 186.6 0 298 0s202 90.6 202 202c0 78.2-32.9 150.9-92.7 204.6-53.3 47.8-124.4 76.3-190.4 76.3zM298 22.2c-99.1 0-179.8 80.6-179.8 179.8 0 81.2 54.7 152.6 133 173.6.6.2 1.2.4 1.7.6 22.1 10.1 23.9 39.8 23.9 48.6 0 10.9-3.3 21.3-9 30.1 107.5-24.1 210-121.3 210-252.9 0-99.2-80.6-179.8-179.8-179.8z"/><path d="M250.4 202c0 12-9.7 21.7-21.7 21.7S207 214 207 202s9.7-21.7 21.7-21.7 21.7 9.7 21.7 21.7zm72.7 0c0 12-9.7 21.7-21.7 21.7s-21.7-9.7-21.7-21.7 9.7-21.7 21.7-21.7 21.7 9.7 21.7 21.7zm72.7 0c0 12-9.7 21.7-21.7 21.7s-21.7-9.7-21.7-21.7 9.7-21.7 21.7-21.7 21.7 9.7 21.7 21.7z"/></symbol>—<symbol xmlns="http://www.w3.org/2000/svg" xmlns:xlink="http://www.w3.org/1999/xlink" id="logos-instagram" fill="currentColor" aria-hidden="true" focusable="false" role="img" viewBox="0 0 494 494"><path d="M247 45.1c65.4 0 73.2.2 99 1.4 23.9 1.1 36.9 5.1 45.5 8.4 11.4 4.4 19.6 9.8 28.2 18.3 8.6 8.6 13.9 16.7 18.3 28.2 3.4 8.6 7.3 21.6 8.4 45.5 1.2 25.8 1.4 33.6 1.4 99s-.2 73.2-1.4 99c-1.1 23.9-5.1 36.9-8.4 45.5-4.4 11.4-9.8 19.6-18.3 28.2-8.6 8.6-16.7 13.9-28.2 18.3-8.6 3.4-21.6 7.3-45.5 8.4-25.8 1.2-33.6 1.4-99 1.4s-73.2-.2-99-1.4c-23.9-1.1-36.9-5.1-45.5-8.4-11.4-4.4-19.6-9.8-28.2-18.3-8.6-8.6-13.9-16.7-18.3-28.2-3.4-8.6-7.3-21.6-8.4-45.5-1.2-25.8-1.4-33.6-1.4-99s.2-73.2 1.4-99c1.1-23.9 5.1-36.9 8.4-45.5 4.4-11.4 9.8-19.6 18.3-28.2 8.6-8.6 16.7-13.9 28.2-18.3 8.6-3.4 21.6-7.3 45.5-8.4 25.8-1.1 33.6-1.4 99-1.4M247 1c-66.5 0-74.9.3-101 1.5-26.1 1.2-43.9 5.3-59.5 11.4-16.1 6.3-29.8 14.6-43.4 28.3-13.6 13.6-22 27.3-28.3 43.4-6 15.5-10.1 33.3-11.3 59.4C2.3 171.1 2 179.5 2 246s.3 74.9 1.5 101c1.2 26.1 5.3 43.9 11.4 59.5 6.3 16.1 14.6 29.8 28.3 43.4 13.6 13.6 27.3 22 43.4 28.3 15.6 6.1 33.4 10.2 59.5 11.4 26.1 1.2 34.5 1.5 101 1.5s74.9-.3 101-1.5c26.1-1.2 43.9-5.3 59.5-11.4 16.1-6.3 29.8-14.6 43.4-28.3 13.6-13.6 22-27.3 28.3-43.4 6.1-15.6 10.2-33.4 11.4-59.5 1.2-26.1 1.5-34.5 1.5-101s-.3-74.9-1.5-101c-1.2-26.1-5.3-43.9-11.4-59.5-6.3-16.1-14.6-29.8-28.3-43.4-13.6-13.6-27.3-22-43.4-28.3-15.7-6-33.5-10.1-59.6-11.3C321.9 1.3 313.5 1 247 1z"/><path d="M245 119.2c-69.5 0-125.8 56.3-125.8 125.8S175.5 370.8 245 370.8 370.8 314.5 370.8 245 314.5 119.2 245 119.2zm0 207.5c-45.1 0-81.7-36.6-81.7-81.7s36.6-81.7 81.7-81.7 81.7 36.6 81.7 81.7-36.6 81.7-81.7 81.7z"/><circle cx="375.8" cy="114.2" r="29.4" fill="#FFF"/></symbol><symbol xmlns="http://www.w3.org/2000/svg" xmlns:xlink="http://www.w3.org/1999/xlink" id="logos-localisation" fill="currentColor" aria-hidden="true" focusable="false" role="img" viewBox="0 0 44.6 44.6"><path d="M29.5 4.5C25.2.2 18.2.2 13.9 4.5c-4.3 4.3-4.3 11.3 0 15.6 6.6 7.6 6.3 12.7 7.8 12.7s1.2-5.1 7.8-12.7c4.3-4.3 4.3-11.3 0-15.6m-7.7 13c-3 0-5.5-2.5-5.5-5.5s2.5-5.5 5.5-5.5S27.3 9 27.3 12c0 3.1-2.5 5.5-5.5 5.5"/><path d="M17.3 43.2h-.1c-3-.8-6-1.8-8.9-2.9-.2 0-.3-.2-.3-.5l1.7-18.7c0-.2.1-.3.2-.4.1-.1.3-.1.4 0 2.5 1 5 1.9 7.5 2.7 2.5-.7 5.1-1.4 7.6-2.3h.3c2.6.7 5.2 1.3 7.8 1.8.2 0 .4.2.4.4L35.7 42v.2c0 .3-.2.5-.5.5h-.1c-2.9-.5-5.9-1.1-8.9-1.8-2.9.9-5.8 1.6-8.8 2.3h-.1zM9 39.5c2.8 1 5.6 1.9 8.3 2.7 2.9-.7 5.8-1.4 8.7-2.3h.3c2.7.6 5.5 1.2 8.3 1.7L33 23.9c-2.5-.5-4.9-1.1-7.4-1.7-2.5.8-5.1 1.6-7.6 2.3h-.3c-2.4-.8-4.8-1.6-7.1-2.5L9 39.5z"/><path d="M17.7 23.4h1l-.3 10-.3 10h-1l.3-10zm7.1-1l.1 9 .2 9h-1l-.2-9-.1-9h.5z"/></symbol><symbol xmlns="http://www.w3.org/2000/svg" xmlns:xlink="http://www.w3.org/1999/xlink" id="logos-faq" fill="currentColor" aria-hidden="true" focusable="false" role="img" viewBox="0 0 47 47"><path d="M19.795 22.049c0 2.44-1.979 4.422-4.42 4.422s-4.421-1.981-4.421-4.422a4.42 4.42 0 0 1 8.841 0m1.099 10.661c0 6.478-5.519 12.593-5.519 12.593S9.858 39.188 9.858 32.71a5.518 5.518 0 1 1 11.036 0m7.789-30.948c-5.52 0-9.992 4.474-9.992 9.992s4.473 9.992 9.992 9.992c5.519 0 9.991-4.474 9.991-9.992s-4.473-9.992-9.991-9.992m-.705 16.158c-1.058 0-1.832-.615-1.832-1.797 0-1.604 1.339-4.546 1.339-5.426 0-.423-.212-.564-1.092-.6l.177-.635 3.979-.068c-.157.527-1.866 6.271-1.866 6.887 0 .37.105.512.299.512.583 0 1.322-1.463 1.551-1.832l.563.316c-.547 1.252-1.604 2.643-3.118 2.643m1.832-9.618c-.704 0-1.409-.583-1.409-1.356 0-.776.705-1.357 1.409-1.357.705 0 1.409.581 1.409 1.357 0 .773-.704 1.356-1.409 1.356"/></symbol><symbol xmlns="http://www.w3.org/2000/svg" xmlns:xlink="http://www.w3.org/1999/xlink" id="logos-facebook" fill="currentColor" aria-hidden="true" focusable="false" role="img" viewBox="0 0 500 1074.3"><path d="M108.9 212.9v148.5H0v178.2h108.9v534.7h222.8V539.6h148.5s14.9-84.2 19.8-183.2H331.7V232.6s24.8-44.6 49.5-44.6H500V-.1c-59.4 5-133.7 5-163.4 5-232.6.1-227.7 183.2-227.7 208z"/></symbol><symbol xmlns="http://www.w3.org/2000/svg" xmlns:xlink="http://www.w3.org/1999/xlink" id="logos-youtube" fill="currentColor" aria-hidden="true" focusable="false" role="img" viewBox="0 0 500 599.5"><path d="M421.8 438.4h-33.2v-19c0-9.5 7.1-16.6 16.6-16.6h2.4c9.5 0 16.6 7.1 16.6 16.6l-2.4 19zm-123.2-40.3c-9.5 0-14.2 4.7-14.2 11.8v92.4c0 7.1 7.1 11.8 14.2 11.8 9.5 0 14.2-4.7 14.2-11.8V410c2.4-7.2-4.7-11.9-14.2-11.9zM500 346v175.4c0 42.7-37.9 78.2-80.6 78.2H80.6C35.5 599.5 0 564 0 521.3V343.6c0-42.7 35.5-78.2 80.6-78.2h336.5c45 2.4 82.9 37.9 82.9 80.6zM104.3 540.3V353.1H147v-28.4H35.5v30.8H71v187.2h33.2v-2.4zm125.6-156.4h-35.5v123.2c-2.4 7.1-16.6 16.6-21.3 0V383.9h-33.2v130.3c0 9.5 0 19 9.5 26.1 16.6 11.8 45-2.4 52.1-16.6V545h28.4V383.9zm109 113.7v-82.9c0-30.8-23.7-49.8-54.5-26.1V327h-35.5v213.3h28.4l2.4-14.2c37.8 33.1 59.2 9.4 59.2-28.5zm109-11.8h-26.1v16.6c0 7.1-7.1 14.2-14.2 14.2h-4.7c-7.1 0-14.2-7.1-14.2-14.2v-40.3h59.2v-21.3c0-16.6 0-33.2-2.4-42.7-4.7-30.8-45-33.2-66.4-19-7.1 4.7-11.8 11.8-14.2 19-2.4 9.5-4.7 21.3-4.7 35.5v49.8c0 85.3 99.5 73.5 87.7 2.4zM315.2 218c2.4 4.7 4.7 7.1 9.5 9.5 4.7 2.4 9.5 4.7 14.2 4.7s9.5-2.4 14.2-4.7c4.7-2.4 7.1-7.1 9.5-11.8v14.2h37.9V64h-30.8v128c0 7.1-4.7 11.8-11.8 11.8s-11.8-4.7-11.8-11.8V64h-30.8v139.8c-2.5 4.7-2.5 9.5-.1 14.2zm-118.5-92.4c0-16.6 2.4-28.4 4.7-37.9 2.4-9.5 7.1-16.6 14.2-21.3s16.6-7.1 26.1-7.1 16.6 2.4 23.7 4.7c7.1 2.4 11.8 7.1 14.2 14.2 4.7 4.7 7.1 9.5 7.1 16.6 2.4 4.7 2.4 14.2 2.4 26.1v42.7c0 14.2 0 26.1-2.4 33.2 0 7.1-4.7 14.2-7.1 19-4.7 7.1-9.5 11.8-14.2 14.2-7.1 2.4-14.2 4.7-21.3 4.7-9.5 0-16.6-2.4-21.3-4.7-7.1-2.4-11.8-4.7-16.6-9.5-2.4-7.1-4.7-11.8-7.1-19 0-7.1-2.4-19-2.4-33.2v-42.7zm30.8 64c0 9.5 7.1 16.6 14.2 16.6 9.5 0 14.2-7.1 14.2-16.6v-87.7c0-9.5-7.1-16.6-14.2-16.6-9.5 0-14.2 7.1-14.2 16.6v87.7zm-106.6 45h35.5V109l45-109h-40.3l-23.7 80.6L113.7 0H75.8l45 109v125.6z"/></symbol><symbol xmlns="http://www.w3.org/2000/svg" xmlns:xlink="http://www.w3.org/1999/xlink" id="logos-css" fill="currentColor" aria-hidden="true" preserveAspectRatio="xMidYMid meet" role="img" viewBox="0 0 256 361"><path fill="#264DE4" d="M127.844 360.088L23.662 331.166L.445 70.766h255.11l-23.241 260.36l-104.47 28.962z"/><path fill="#2965F1" d="M212.417 314.547l19.86-222.49H128V337.95l84.417-23.403z"/><path fill="#EBEBEB" d="M53.669 188.636l2.862 31.937H128v-31.937H53.669z"/><path fill="#EBEBEB" d="M47.917 123.995l2.903 31.937H128v-31.937H47.917z"/><path fill="#EBEBEB" d="M128 271.58l-.14.037l-35.568-9.604l-2.274-25.471h-32.06l4.474 50.146l65.421 18.16l.147-.04V271.58z"/><path fill="#000" d="M60.484 0h38.68v16.176H76.66v16.176h22.506v16.175H60.484V0z"/><path fill="#000" d="M106.901 0h38.681v14.066h-22.505v2.813h22.505v32.352h-38.68V34.46h22.505v-2.813H106.9V0z"/><path fill="#000" d="M153.319 0H192v14.066h-22.505v2.813H192v32.352h-38.681V34.46h22.505v-2.813H153.32V0z"/><path d="M202.127 188.636l5.765-64.641H127.89v31.937h45.002l-2.906 32.704H127.89v31.937h39.327l-3.708 41.42l-35.62 9.614v33.226l65.473-18.145l.48-5.396l7.506-84.08l.779-8.576z"/></symbol><symbol xmlns="http://www.w3.org/2000/svg" xmlns:xlink="http://www.w3.org/1999/xlink" id="logos-docker" fill="currentColor" aria-hidden="true" preserveAspectRatio="xMidYMid meet" role="img" viewBox="0 0 256 185"><path fill="#2396ED" d="M250.716 70.497c-5.765-4-18.976-5.5-29.304-3.5c-1.2-10-6.725-18.749-16.333-26.499l-5.524-4l-3.844 5.75c-4.803 7.5-7.205 18-6.485 28c.24 3.499 1.441 9.749 5.044 15.249c-3.362 2-10.328 4.5-19.455 4.5H1.155l-.48 2c-1.682 9.999-1.682 41.248 18.014 65.247c14.892 18.249 36.99 27.499 66.053 27.499c62.93 0 109.528-30.25 131.386-84.997c8.647.25 27.142 0 36.51-18.75c.24-.5.72-1.5 2.401-5.249l.961-2l-5.284-3.25zM139.986 0h-26.42v24.999h26.42V0zm0 29.999h-26.42v24.999h26.42v-25zm-31.225 0h-26.42v24.999h26.42v-25zm-31.225 0H51.115v24.999h26.421v-25zM46.311 59.998H19.89v24.999H46.31v-25zm31.225 0H51.115v24.999h26.421v-25zm31.225 0h-26.42v24.999h26.42v-25zm31.226 0h-26.422v24.999h26.422v-25zm31.225 0H144.79v24.999h26.422v-25z"/></symbol><symbol xmlns="http://www.w3.org/2000/svg" xmlns:xlink="http://www.w3.org/1999/xlink" id="logos-figma" fill="currentColor" aria-hidden="true" preserveAspectRatio="xMidYMid meet" role="img" viewBox="0 0 256 384"><path fill="#0ACF83" d="M64 384c35.328 0 64-28.672 64-64v-64H64c-35.328 0-64 28.672-64 64s28.672 64 64 64z"/><path fill="#A259FF" d="M0 192c0-35.328 28.672-64 64-64h64v128H64c-35.328 0-64-28.672-64-64z"/><path fill="#F24E1E" d="M0 64C0 28.672 28.672 0 64 0h64v128H64C28.672 128 0 99.328 0 64z"/><path fill="#FF7262" d="M128 0h64c35.328 0 64 28.672 64 64s-28.672 64-64 64h-64V0z"/><path fill="#1ABCFE" d="M256 192c0 35.328-28.672 64-64 64s-64-28.672-64-64s28.672-64 64-64s64 28.672 64 64z"/></symbol><symbol xmlns="http://www.w3.org/2000/svg" xmlns:xlink="http://www.w3.org/1999/xlink" id="logos-github" fill="currentColor" aria-hidden="true" preserveAspectRatio="xMidYMid meet" role="img" viewBox="0 0 256 250"><path d="M128.001 0C57.317 0 0 57.307 0 128.001c0 56.554 36.676 104.535 87.535 121.46c6.397 1.185 8.746-2.777 8.746-6.158c0-3.052-.12-13.135-.174-23.83c-35.61 7.742-43.124-15.103-43.124-15.103c-5.823-14.795-14.213-18.73-14.213-18.73c-11.613-7.944.876-7.78.876-7.78c12.853.902 19.621 13.19 19.621 13.19c11.417 19.568 29.945 13.911 37.249 10.64c1.149-8.272 4.466-13.92 8.127-17.116c-28.431-3.236-58.318-14.212-58.318-63.258c0-13.975 5-25.394 13.188-34.358c-1.329-3.224-5.71-16.242 1.24-33.874c0 0 10.749-3.44 35.21 13.121c10.21-2.836 21.16-4.258 32.038-4.307c10.878.049 21.837 1.47 32.066 4.307c24.431-16.56 35.165-13.12 35.165-13.12c6.967 17.63 2.584 30.65 1.255 33.873c8.207 8.964 13.173 20.383 13.173 34.358c0 49.163-29.944 59.988-58.447 63.157c4.591 3.972 8.682 11.762 8.682 23.704c0 17.126-.148 30.91-.148 35.126c0 3.407 2.304 7.398 8.792 6.14C219.37 232.5 256 184.537 256 128.002C256 57.307 198.691 0 128.001 0zm-80.06 182.34c-.282.636-1.283.827-2.194.39c-.929-.417-1.45-1.284-1.15-1.922c.276-.655 1.279-.838 2.205-.399c.93.418 1.46 1.293 1.139 1.931zm6.296 5.618c-.61.566-1.804.303-2.614-.591c-.837-.892-.994-2.086-.375-2.66c.63-.566 1.787-.301 2.626.591c.838.903 1 2.088.363 2.66zm4.32 7.188c-.785.545-2.067.034-2.86-1.104c-.784-1.138-.784-2.503.017-3.05c.795-.547 2.058-.055 2.861 1.075c.782 1.157.782 2.522-.019 3.08zm7.304 8.325c-.701.774-2.196.566-3.29-.49c-1.119-1.032-1.43-2.496-.726-3.27c.71-.776 2.213-.558 3.315.49c1.11 1.03 1.45 2.505.701 3.27zm9.442 2.81c-.31 1.003-1.75 1.459-3.199 1.033c-1.448-.439-2.395-1.613-2.103-2.626c.301-1.01 1.747-1.484 3.207-1.028c1.446.436 2.396 1.602 2.095 2.622zm10.744 1.193c.036 1.055-1.193 1.93-2.715 1.95c-1.53.034-2.769-.82-2.786-1.86c0-1.065 1.202-1.932 2.733-1.958c1.522-.03 2.768.818 2.768 1.868zm10.555-.405c.182 1.03-.875 2.088-2.387 2.37c-1.485.271-2.861-.365-3.05-1.386c-.184-1.056.893-2.114 2.376-2.387c1.514-.263 2.868.356 3.061 1.403z"/></symbol><symbol xmlns="http://www.w3.org/2000/svg" xmlns:xlink="http://www.w3.org/1999/xlink" id="logos-html" aria-hidden="true" preserveAspectRatio="xMidYMid meet" role="img" viewBox="0 0 256 361"><path fill="#E44D26" d="M255.555 70.766l-23.241 260.36l-104.47 28.962l-104.182-28.922L.445 70.766h255.11z"/><path fill="#F16529" d="M128 337.95l84.417-23.403l19.86-222.49H128V337.95z"/><path fill="#EBEBEB" d="M82.82 155.932H128v-31.937H47.917l.764 8.568l7.85 88.01H128v-31.937H85.739l-2.919-32.704z"/><path fill="#EBEBEB" d="M90.018 236.542h-32.06l4.474 50.146l65.421 18.16l.147-.04V271.58l-.14.037l-35.568-9.604l-2.274-25.471z"/><path fill="#000" d="M24.18 0h16.23v16.035h14.847V0h16.231v48.558h-16.23v-16.26H40.411v16.26h-16.23V0z"/><path fill="#000" d="M92.83 16.103H78.544V0h44.814v16.103h-14.295v32.455h-16.23V16.103h-.001z"/><path fill="#000" d="M130.47 0h16.923l10.41 17.062L168.203 0h16.93v48.558h-16.164V24.49l-11.166 17.265h-.28L146.35 24.49v24.068h-15.88V0z"/><path fill="#000" d="M193.21 0h16.235v32.508h22.824v16.05h-39.06V0z"/><path fill="#FFF" d="M127.89 220.573h39.327l-3.708 41.42l-35.62 9.614v33.226l65.473-18.145l.48-5.396l7.506-84.08l.779-8.576H127.89v31.937z"/><path fill="#FFF" d="M127.89 155.854v.078h77.143l.64-7.178l1.456-16.191l.763-8.568H127.89v31.86z"/></symbol><symbol xmlns="http://www.w3.org/2000/svg" xmlns:xlink="http://www.w3.org/1999/xlink" id="logos-javascript" aria-hidden="true" preserveAspectRatio="xMidYMid meet" role="img" viewBox="0 0 256 256"><path fill="#F7DF1E" d="M0 0h256v256H0V0z"/><path fill="#000" d="M67.312 213.932l19.59-11.856c3.78 6.701 7.218 12.371 15.465 12.371c7.905 0 12.89-3.092 12.89-15.12v-81.798h24.057v82.138c0 24.917-14.606 36.259-35.916 36.259c-19.245 0-30.416-9.967-36.087-21.996"/><path fill="#000" d="M152.381 211.354l19.588-11.341c5.157 8.421 11.859 14.607 23.715 14.607c9.969 0 16.325-4.984 16.325-11.858c0-8.248-6.53-11.17-17.528-15.98l-6.013-2.58c-17.357-7.387-28.87-16.667-28.87-36.257c0-18.044 13.747-31.792 35.228-31.792c15.294 0 26.292 5.328 34.196 19.247L210.29 147.43c-4.125-7.389-8.591-10.31-15.465-10.31c-7.046 0-11.514 4.468-11.514 10.31c0 7.217 4.468 10.14 14.778 14.608l6.014 2.577c20.45 8.765 31.963 17.7 31.963 37.804c0 21.654-17.012 33.51-39.867 33.51c-22.339 0-36.774-10.654-43.819-24.574"/></symbol><symbol xmlns="http://www.w3.org/2000/svg" xmlns:xlink="http://www.w3.org/1999/xlink" id="logos-mysql" aria-hidden="true" preserveAspectRatio="xMidYMid meet" role="img" viewBox="0 0 256 252"><path fill="#00546B" d="M235.648 194.212c-13.918-.347-24.705 1.045-33.752 4.872c-2.61 1.043-6.786 1.044-7.134 4.35c1.392 1.392 1.566 3.654 2.784 5.567c2.09 3.479 5.741 8.177 9.047 10.614c3.653 2.783 7.308 5.566 11.134 8.002c6.786 4.176 14.442 6.611 21.053 10.787c3.829 2.434 7.654 5.568 11.482 8.177c1.914 1.39 3.131 3.654 5.568 4.523v-.521c-1.219-1.567-1.567-3.828-2.784-5.568c-1.738-1.74-3.48-3.306-5.22-5.046c-5.045-6.784-11.308-12.7-18.093-17.571c-5.567-3.828-17.747-9.047-20.008-15.485c0 0-.175-.173-.348-.347c3.827-.348 8.35-1.74 12.005-2.784c5.915-1.567 11.308-1.218 17.398-2.784c2.783-.696 5.567-1.566 8.35-2.436v-1.565c-3.13-3.132-5.392-7.307-8.698-10.265c-8.873-7.657-18.617-15.137-28.707-21.4c-5.394-3.48-12.354-5.742-18.095-8.699c-2.086-1.045-5.567-1.566-6.784-3.306c-3.133-3.827-4.873-8.872-7.134-13.396c-5.044-9.57-9.917-20.182-14.267-30.272c-3.13-6.786-5.044-13.572-8.872-19.834c-17.92-29.577-37.406-47.497-67.33-65.07c-6.438-3.653-14.093-5.219-22.27-7.132c-4.348-.175-8.699-.522-13.048-.697c-2.784-1.218-5.568-4.523-8.004-6.089C34.006 4.573 8.429-8.996 1.122 8.924c-4.698 11.308 6.96 22.442 10.96 28.185c2.96 4.001 6.786 8.524 8.874 13.048c1.218 2.956 1.565 6.09 2.783 9.221c2.785 7.653 5.393 16.18 9.048 23.314c1.914 3.653 4.001 7.48 6.437 10.786c1.392 1.913 3.827 2.784 4.35 5.915c-2.435 3.48-2.61 8.7-4.003 13.049c-6.263 19.66-3.826 44.017 5.046 58.457c2.783 4.348 9.395 13.92 18.268 10.265c7.83-3.131 6.09-13.048 8.35-21.747c.524-2.09.176-3.48 1.219-4.872v.349c2.436 4.87 4.871 9.569 7.133 14.44c5.394 8.524 14.788 17.398 22.617 23.314c4.177 3.13 7.482 8.524 12.702 10.438v-.523h-.349c-1.044-1.566-2.61-2.261-4.001-3.48c-3.131-3.13-6.612-6.958-9.047-10.438c-7.306-9.744-13.745-20.53-19.486-31.665c-2.783-5.392-5.22-11.308-7.481-16.701c-1.045-2.09-1.045-5.22-2.784-6.263c-2.61 3.827-6.437 7.133-8.351 11.83c-3.304 7.481-3.653 16.702-4.871 26.27c-.696.176-.349 0-.697.35c-5.566-1.394-7.48-7.134-9.569-12.006c-5.22-12.352-6.09-32.186-1.565-46.452c1.218-3.654 6.438-15.136 4.35-18.616c-1.044-3.306-4.525-5.22-6.438-7.829c-2.261-3.306-4.698-7.48-6.263-11.135c-4.176-9.743-6.264-20.53-10.787-30.273c-2.088-4.524-5.74-9.22-8.699-13.396c-3.305-4.697-6.959-8.004-9.569-13.571c-.869-1.913-2.088-5.045-.696-7.133c.348-1.392 1.043-1.913 2.436-2.261c2.262-1.915 8.7.521 10.96 1.565c6.438 2.608 11.831 5.046 17.225 8.699c2.435 1.74 5.045 5.046 8.176 5.916h3.654c5.568 1.217 11.83.348 17.05 1.913c9.222 2.957 17.572 7.307 25.054 12.005c22.792 14.44 41.58 34.97 54.282 59.501c2.088 4 2.957 7.656 4.871 11.83c3.655 8.526 8.178 17.225 11.83 25.576c3.654 8.176 7.133 16.528 12.353 23.314c2.61 3.652 13.048 5.567 17.746 7.481c3.48 1.565 8.874 2.958 12.005 4.871c5.915 3.652 11.83 7.83 17.398 11.83c2.784 2.088 11.482 6.438 12.005 9.917z"/><path fill="#00546B" d="M58.186 43.022c-2.957 0-5.044.35-7.132.871v.348h.348c1.393 2.784 3.827 4.698 5.566 7.133c1.393 2.783 2.61 5.568 4.003 8.352c.173-.175.347-.348.347-.348c2.437-1.741 3.654-4.524 3.654-8.7c-1.044-1.217-1.218-2.435-2.088-3.653c-1.043-1.741-3.306-2.61-4.698-4.003z"/></symbol><symbol xmlns="http://www.w3.org/2000/svg" xmlns:xlink="http://www.w3.org/1999/xlink" id="logos-nextjs" aria-hidden="true" preserveAspectRatio="xMidYMid meet" role="img" viewBox="0 0 256 256"><path fill="#000" d="M119.617.069c-.55.05-2.302.225-3.879.35c-36.36 3.278-70.419 22.894-91.99 53.044c-12.012 16.764-19.694 35.78-22.597 55.922C.125 116.415 0 118.492 0 128.025c0 9.533.125 11.61 1.151 18.64c6.957 48.065 41.165 88.449 87.56 103.411c8.309 2.678 17.067 4.504 27.027 5.605c3.879.425 20.645.425 24.524 0c17.192-1.902 31.756-6.155 46.12-13.486c2.202-1.126 2.628-1.426 2.327-1.677c-.2-.15-9.584-12.735-20.845-27.948l-20.47-27.648l-25.65-37.956c-14.114-20.868-25.725-37.932-25.825-37.932c-.1-.025-.2 16.84-.25 37.431c-.076 36.055-.1 37.506-.551 38.357c-.65 1.226-1.151 1.727-2.202 2.277c-.801.4-1.502.475-5.28.475h-4.33l-1.15-.725a4.679 4.679 0 0 1-1.677-1.827l-.526-1.126l.05-50.166l.075-50.192l.776-.976c.4-.525 1.251-1.2 1.852-1.526c1.026-.5 1.426-.55 5.755-.55c5.105 0 5.956.2 7.282 1.651c.376.4 14.264 21.318 30.88 46.514c16.617 25.195 39.34 59.599 50.5 76.488l20.27 30.7l1.026-.675c9.084-5.905 18.693-14.312 26.3-23.07c16.191-18.59 26.626-41.258 30.13-65.428c1.026-7.031 1.151-9.108 1.151-18.64c0-9.534-.125-11.61-1.151-18.641c-6.957-48.065-41.165-88.449-87.56-103.411c-8.184-2.652-16.892-4.479-26.652-5.58c-2.402-.25-18.943-.525-21.02-.325zm52.401 77.414c1.201.6 2.177 1.752 2.527 2.953c.2.65.25 14.562.2 45.913l-.074 44.987l-7.933-12.16l-7.958-12.16v-32.702c0-21.143.1-33.028.25-33.603c.4-1.401 1.277-2.502 2.478-3.153c1.026-.525 1.401-.575 5.33-.575c3.704 0 4.354.05 5.18.5z"/></symbol><symbol xmlns="http://www.w3.org/2000/svg" xmlns:xlink="http://www.w3.org/1999/xlink" id="logos-nodejs" aria-hidden="true" preserveAspectRatio="xMidYMid meet" role="img" viewBox="0 0 256 289"><path fill="#539E43" d="M128 288.464c-3.975 0-7.685-1.06-11.13-2.915l-35.247-20.936c-5.3-2.915-2.65-3.975-1.06-4.505c7.155-2.385 8.48-2.915 15.9-7.156c.796-.53 1.856-.265 2.65.265l27.032 16.166c1.06.53 2.385.53 3.18 0l105.74-61.217c1.06-.53 1.59-1.59 1.59-2.915V83.08c0-1.325-.53-2.385-1.59-2.915l-105.74-60.953c-1.06-.53-2.385-.53-3.18 0L20.405 80.166c-1.06.53-1.59 1.855-1.59 2.915v122.17c0 1.06.53 2.385 1.59 2.915l28.887 16.695c15.636 7.95 25.44-1.325 25.44-10.6V93.68c0-1.59 1.326-3.18 3.181-3.18h13.516c1.59 0 3.18 1.325 3.18 3.18v120.58c0 20.936-11.396 33.126-31.272 33.126c-6.095 0-10.865 0-24.38-6.625l-27.827-15.9C4.24 220.885 0 213.465 0 205.515V83.346C0 75.396 4.24 67.976 11.13 64L116.87 2.783c6.625-3.71 15.635-3.71 22.26 0L244.87 64C251.76 67.975 256 75.395 256 83.346v122.17c0 7.95-4.24 15.37-11.13 19.345L139.13 286.08c-3.445 1.59-7.42 2.385-11.13 2.385zm32.596-84.009c-46.377 0-55.917-21.2-55.917-39.221c0-1.59 1.325-3.18 3.18-3.18h13.78c1.59 0 2.916 1.06 2.916 2.65c2.12 14.045 8.215 20.936 36.306 20.936c22.261 0 31.802-5.035 31.802-16.96c0-6.891-2.65-11.926-37.367-15.372c-28.886-2.915-46.907-9.275-46.907-32.33c0-21.467 18.02-34.187 48.232-34.187c33.921 0 50.617 11.66 52.737 37.101c0 .795-.265 1.59-.795 2.385c-.53.53-1.325 1.06-2.12 1.06h-13.78c-1.326 0-2.65-1.06-2.916-2.385c-3.18-14.575-11.395-19.345-33.126-19.345c-24.38 0-27.296 8.48-27.296 14.84c0 7.686 3.445 10.07 36.306 14.31c32.597 4.24 47.967 10.336 47.967 33.127c-.265 23.321-19.345 36.571-53.002 36.571z"/></symbol><symbol xmlns="http://www.w3.org/2000/svg" xmlns:xlink="http://www.w3.org/1999/xlink" id="logos-postman" aria-hidden="true" preserveAspectRatio="xMidYMid meet" role="img" viewBox="0 0 256 256"><path fill="#FF6C37" d="M254.953 144.253c8.959-70.131-40.569-134.248-110.572-143.206C74.378-7.912 10.005 41.616 1.047 111.619c-8.959 70.003 40.569 134.248 110.572 143.334c70.131 8.959 134.248-40.569 143.334-110.7z"/><path fill="#FFF" d="M174.2 82.184l-54.007 54.007l-15.229-15.23c53.11-53.11 58.358-48.503 69.236-38.777z"/><path fill="#FF6C37" d="M120.193 137.47c-.384 0-.64-.128-.895-.384l-15.358-15.229a1.237 1.237 0 0 1 0-1.792c54.007-54.006 59.638-48.887 71.028-38.649c.255.256.383.512.383.896s-.128.64-.383.896l-54.007 53.878c-.128.256-.512.384-.768.384zm-13.437-16.509l13.437 13.438l52.087-52.087c-9.47-8.446-15.87-11.006-65.524 38.65z"/><path fill="#FFF" d="M135.679 151.676l-14.718-14.718l54.007-54.006c14.46 14.59-7.167 38.265-39.29 68.724z"/><path fill="#FF6C37" d="M135.679 152.956c-.384 0-.64-.128-.896-.384l-14.718-14.718c-.256-.256-.256-.512-.256-.896s.128-.64.384-.895L174.2 82.056a1.237 1.237 0 0 1 1.791 0a15.58 15.58 0 0 1 4.991 11.902c-.256 14.206-16.38 32.25-44.28 58.614c-.383.256-.767.384-1.023.384zm-12.926-15.998c8.19 8.319 11.646 11.646 12.926 12.926c21.5-20.476 42.36-41.464 42.488-55.926c.128-3.327-1.152-6.655-3.327-9.214l-52.087 52.214z"/><path fill="#FFF" d="M105.22 121.345l10.878 10.878c.256.256.256.512 0 .768c-.128.128-.128.128-.256.128l-22.524 4.863c-1.152.128-2.175-.64-2.431-1.791c-.128-.64.128-1.28.512-1.664l13.053-13.054c.256-.256.64-.384.768-.128z"/><path fill="#FF6C37" d="M92.934 139.262c-1.92 0-3.327-1.536-3.327-3.455c0-.896.384-1.792 1.024-2.432l13.053-13.054c.768-.64 1.792-.64 2.56 0l10.878 10.878c.768.64.768 1.792 0 2.56c-.256.256-.512.384-.896.512l-22.524 4.863c-.256 0-.512.128-.768.128zm11.902-16.51l-12.542 12.543c-.256.256-.383.64-.128 1.024c.128.383.512.511.896.383l21.116-4.607l-9.342-9.342z"/><path fill="#FFF" d="M202.739 52.238c-8.191-7.935-21.373-7.679-29.307.64c-7.935 8.318-7.679 21.372.64 29.306A20.678 20.678 0 0 0 199.155 85l-14.59-14.59l18.174-18.172z"/><path fill="#FF6C37" d="M188.405 89.223c-12.158 0-22.012-9.854-22.012-22.012c0-12.158 9.854-22.012 22.012-22.012c5.631 0 11.134 2.176 15.23 6.143c.255.256.383.512.383.896s-.128.64-.384.895L186.357 70.41l13.566 13.566c.512.512.512 1.28 0 1.792l-.256.256c-3.327 2.047-7.295 3.199-11.262 3.199zm0-41.337c-10.75 0-19.452 8.703-19.324 19.453c0 10.75 8.702 19.452 19.452 19.324c2.944 0 5.887-.64 8.575-2.047l-13.438-13.31c-.256-.256-.384-.512-.384-.896s.128-.64.384-.895l17.149-17.15c-3.456-2.943-7.807-4.479-12.414-4.479z"/><path fill="#FFF" d="M203.122 52.622l-.255-.256l-18.301 18.044l14.461 14.462c1.408-.896 2.816-1.92 3.967-3.072a20.51 20.51 0 0 0 .128-29.178z"/><path fill="#FF6C37" d="M199.155 86.28c-.384 0-.64-.128-.896-.384l-14.589-14.59c-.256-.256-.384-.512-.384-.896s.128-.64.384-.895l18.173-18.173a1.237 1.237 0 0 1 1.791 0l.384.256c8.575 8.574 8.575 22.396.128 31.098c-1.28 1.28-2.687 2.432-4.223 3.328c-.384.128-.64.256-.768.256zm-12.798-15.87l12.926 12.926c1.024-.64 2.048-1.536 2.816-2.304c7.294-7.294 7.678-19.196.64-26.875L186.357 70.41z"/><path fill="#FFF" d="M176.375 84.488a7.879 7.879 0 0 0-11.134 0l-48.247 48.247l8.063 8.063l51.062-44.792c3.328-2.816 3.584-7.807.768-11.134c-.256-.128-.384-.256-.512-.384z"/><path fill="#FF6C37" d="M124.929 142.077c-.384 0-.64-.128-.896-.383l-8.063-8.063a1.237 1.237 0 0 1 0-1.792l48.247-48.247a9.115 9.115 0 0 1 12.926 0a9.115 9.115 0 0 1 0 12.926l-.384.384l-51.063 44.792c-.128.255-.384.383-.767.383zm-6.143-9.342l6.27 6.271l50.167-44.024c2.816-2.304 3.072-6.527.768-9.342c-2.303-2.816-6.526-3.072-9.342-.768c-.128.128-.256.256-.512.384l-47.351 47.48z"/><path fill="#FFF" d="M80.009 187.637c-.512.256-.768.768-.64 1.28l2.175 9.214c.512 1.28-.256 2.816-1.663 3.2c-1.024.384-2.176 0-2.816-.768l-14.077-13.95l45.943-45.943l15.87.256l10.75 10.75c-2.56 2.175-18.045 17.149-55.542 35.961z"/><path fill="#FF6C37" d="M78.985 202.61c-1.024 0-2.048-.383-2.688-1.151l-13.95-13.95c-.255-.256-.383-.512-.383-.896c0-.383.128-.64.384-.895l45.944-45.944c.256-.256.64-.384.895-.384l15.87.256c.383 0 .64.128.895.384l10.75 10.75c.256.256.384.64.384 1.024s-.128.64-.512.896l-.895.767c-13.566 11.902-31.995 23.804-54.902 35.194l2.175 9.086c.384 1.664-.384 3.456-1.92 4.352c-.767.384-1.407.512-2.047.512zm-14.078-15.997l13.182 13.054c.384.64 1.152.896 1.792.512c.64-.384.896-1.152.512-1.792l-2.176-9.214c-.256-1.152.256-2.176 1.28-2.688c22.652-11.39 40.952-23.163 54.39-34.81l-9.47-9.47l-14.718-.256l-44.792 44.664z"/><path fill="#FFF" d="M52.11 197.62l11.006-11.007l16.38 16.381l-26.107-1.791c-1.151-.128-1.92-1.152-1.791-2.304c0-.512.128-1.024.512-1.28z"/><path fill="#FF6C37" d="M79.497 204.146l-26.236-1.791c-1.92-.128-3.199-1.792-3.071-3.712c.128-.768.384-1.535 1.024-2.047L62.22 185.59a1.237 1.237 0 0 1 1.792 0l16.38 16.38c.385.385.512.897.257 1.408c-.256.512-.64.768-1.152.768zm-16.381-15.74l-10.11 10.11c-.384.255-.384.895 0 1.151c.127.128.255.256.511.256l22.652 1.536l-13.053-13.054z"/><path fill="#FF6C37" d="M104.452 146.557c-.768 0-1.28-.64-1.28-1.28c0-.384.128-.64.384-.896l12.414-12.414a1.237 1.237 0 0 1 1.792 0l8.062 8.063c.384.384.512.768.384 1.28c-.128.384-.512.767-1.023.895l-20.477 4.352h-.256zm12.414-11.902l-8.446 8.446l13.821-2.943l-5.375-5.503z"/><path fill="#FFF" d="M124.8 140.926l-14.077 3.071c-1.024.256-2.048-.384-2.303-1.408c-.128-.64 0-1.28.511-1.791l7.807-7.807l8.063 7.935z"/><path fill="#FF6C37" d="M110.467 145.277a3.168 3.168 0 0 1-3.2-3.2c0-.895.385-1.663.897-2.303l7.806-7.807a1.237 1.237 0 0 1 1.792 0l8.062 8.063c.384.384.512.768.384 1.28c-.128.384-.512.767-1.023.895l-14.078 3.072h-.64zm6.399-10.622l-6.91 6.91c-.257.257-.257.512-.129.768s.384.384.768.384l11.774-2.56l-5.503-5.502z"/><path fill="#FF6C37" d="M203.25 64.907c-.256-.767-1.151-1.151-1.92-.895c-.767.255-1.151 1.151-.895 1.92c0 .127.128.255.128.383c.768 1.536.512 3.455-.512 4.863c-.512.64-.384 1.536.128 2.048c.64.512 1.536.384 2.048-.256c1.92-2.432 2.303-5.503 1.023-8.063z"/></symbol><symbol xmlns="http://www.w3.org/2000/svg" xmlns:xlink="http://www.w3.org/1999/xlink" id="logos-prisma" aria-hidden="true" preserveAspectRatio="xMidYMid meet" role="img" viewBox="0 0 256 310"><path fill="#000" d="M254.313 235.519L148 9.749A17.063 17.063 0 0 0 133.473.037a16.87 16.87 0 0 0-15.533 8.052L2.633 194.848a17.465 17.465 0 0 0 .193 18.747L59.2 300.896a18.13 18.13 0 0 0 20.363 7.489l163.599-48.392a17.929 17.929 0 0 0 11.26-9.722a17.542 17.542 0 0 0-.101-14.76l-.008.008zm-23.802 9.683l-138.823 41.05c-4.235 1.26-8.3-2.411-7.419-6.685l49.598-237.484c.927-4.443 7.063-5.147 9.003-1.035l91.814 194.973a6.63 6.63 0 0 1-4.18 9.18h.007z"/></symbol><symbol xmlns="http://www.w3.org/2000/svg" xmlns:xlink="http://www.w3.org/1999/xlink" id="logos-react" aria-hidden="true" preserveAspectRatio="xMidYMid meet" role="img" viewBox="0 0 256 228"><path fill="#00D8FF" d="M210.483 73.824a171.49 171.49 0 0 0-8.24-2.597c.465-1.9.893-3.777 1.273-5.621c6.238-30.281 2.16-54.676-11.769-62.708c-13.355-7.7-35.196.329-57.254 19.526a171.23 171.23 0 0 0-6.375 5.848a155.866 155.866 0 0 0-4.241-3.917C100.759 3.829 77.587-4.822 63.673 3.233C50.33 10.957 46.379 33.89 51.995 62.588a170.974 170.974 0 0 0 1.892 8.48c-3.28.932-6.445 1.924-9.474 2.98C17.309 83.498 0 98.307 0 113.668c0 15.865 18.582 31.778 46.812 41.427a145.52 145.52 0 0 0 6.921 2.165a167.467 167.467 0 0 0-2.01 9.138c-5.354 28.2-1.173 50.591 12.134 58.266c13.744 7.926 36.812-.22 59.273-19.855a145.567 145.567 0 0 0 5.342-4.923a168.064 168.064 0 0 0 6.92 6.314c21.758 18.722 43.246 26.282 56.54 18.586c13.731-7.949 18.194-32.003 12.4-61.268a145.016 145.016 0 0 0-1.535-6.842c1.62-.48 3.21-.974 4.76-1.488c29.348-9.723 48.443-25.443 48.443-41.52c0-15.417-17.868-30.326-45.517-39.844zm-6.365 70.984c-1.4.463-2.836.91-4.3 1.345c-3.24-10.257-7.612-21.163-12.963-32.432c5.106-11 9.31-21.767 12.459-31.957c2.619.758 5.16 1.557 7.61 2.4c23.69 8.156 38.14 20.213 38.14 29.504c0 9.896-15.606 22.743-40.946 31.14zm-10.514 20.834c2.562 12.94 2.927 24.64 1.23 33.787c-1.524 8.219-4.59 13.698-8.382 15.893c-8.067 4.67-25.32-1.4-43.927-17.412a156.726 156.726 0 0 1-6.437-5.87c7.214-7.889 14.423-17.06 21.459-27.246c12.376-1.098 24.068-2.894 34.671-5.345c.522 2.107.986 4.173 1.386 6.193zM87.276 214.515c-7.882 2.783-14.16 2.863-17.955.675c-8.075-4.657-11.432-22.636-6.853-46.752a156.923 156.923 0 0 1 1.869-8.499c10.486 2.32 22.093 3.988 34.498 4.994c7.084 9.967 14.501 19.128 21.976 27.15a134.668 134.668 0 0 1-4.877 4.492c-9.933 8.682-19.886 14.842-28.658 17.94zM50.35 144.747c-12.483-4.267-22.792-9.812-29.858-15.863c-6.35-5.437-9.555-10.836-9.555-15.216c0-9.322 13.897-21.212 37.076-29.293c2.813-.98 5.757-1.905 8.812-2.773c3.204 10.42 7.406 21.315 12.477 32.332c-5.137 11.18-9.399 22.249-12.634 32.792a134.718 134.718 0 0 1-6.318-1.979zm12.378-84.26c-4.811-24.587-1.616-43.134 6.425-47.789c8.564-4.958 27.502 2.111 47.463 19.835a144.318 144.318 0 0 1 3.841 3.545c-7.438 7.987-14.787 17.08-21.808 26.988c-12.04 1.116-23.565 2.908-34.161 5.309a160.342 160.342 0 0 1-1.76-7.887zm110.427 27.268a347.8 347.8 0 0 0-7.785-12.803c8.168 1.033 15.994 2.404 23.343 4.08c-2.206 7.072-4.956 14.465-8.193 22.045a381.151 381.151 0 0 0-7.365-13.322zm-45.032-43.861c5.044 5.465 10.096 11.566 15.065 18.186a322.04 322.04 0 0 0-30.257-.006c4.974-6.559 10.069-12.652 15.192-18.18zM82.802 87.83a323.167 323.167 0 0 0-7.227 13.238c-3.184-7.553-5.909-14.98-8.134-22.152c7.304-1.634 15.093-2.97 23.209-3.984a321.524 321.524 0 0 0-7.848 12.897zm8.081 65.352c-8.385-.936-16.291-2.203-23.593-3.793c2.26-7.3 5.045-14.885 8.298-22.6a321.187 321.187 0 0 0 7.257 13.246c2.594 4.48 5.28 8.868 8.038 13.147zm37.542 31.03c-5.184-5.592-10.354-11.779-15.403-18.433c4.902.192 9.899.29 14.978.29c5.218 0 10.376-.117 15.453-.343c-4.985 6.774-10.018 12.97-15.028 18.486zm52.198-57.817c3.422 7.8 6.306 15.345 8.596 22.52c-7.422 1.694-15.436 3.058-23.88 4.071a382.417 382.417 0 0 0 7.859-13.026a347.403 347.403 0 0 0 7.425-13.565zm-16.898 8.101a358.557 358.557 0 0 1-12.281 19.815a329.4 329.4 0 0 1-23.444.823c-7.967 0-15.716-.248-23.178-.732a310.202 310.202 0 0 1-12.513-19.846h.001a307.41 307.41 0 0 1-10.923-20.627a310.278 310.278 0 0 1 10.89-20.637l-.001.001a307.318 307.318 0 0 1 12.413-19.761c7.613-.576 15.42-.876 23.31-.876H128c7.926 0 15.743.303 23.354.883a329.357 329.357 0 0 1 12.335 19.695a358.489 358.489 0 0 1 11.036 20.54a329.472 329.472 0 0 1-11 20.722zm22.56-122.124c8.572 4.944 11.906 24.881 6.52 51.026c-.344 1.668-.73 3.367-1.15 5.09c-10.622-2.452-22.155-4.275-34.23-5.408c-7.034-10.017-14.323-19.124-21.64-27.008a160.789 160.789 0 0 1 5.888-5.4c18.9-16.447 36.564-22.941 44.612-18.3zM128 90.808c12.625 0 22.86 10.235 22.86 22.86s-10.235 22.86-22.86 22.86s-22.86-10.235-22.86-22.86s10.235-22.86 22.86-22.86z"/></symbol><symbol xmlns="http://www.w3.org/2000/svg" xmlns:xlink="http://www.w3.org/1999/xlink" id="logos-sass" aria-hidden="true" preserveAspectRatio="xMidYMid meet" role="img" viewBox="0 0 256 293"><path fill="#8CC84B" d="M78.67 179.029c-4.65 2.907-11.656 7.619-17.076 12.743c-8.898 8.403-10.76 20.059-6.066 22.782c4.342 2.517 14.479-.478 21.734-8.392c7.614-8.308 10.754-18.84 7.511-30.796c-.381.227-.755.455-1.122.667l.008.017l-.492.278c-1.893 1.13-3.44 2.063-4.497 2.7zm130.671-3.773c-2.634 5.725-2.766 7.566-1.966 8.14c3.822-1.373 10.145-4.682 10.195-13.55c.008-1.328-.285-2.752-.755-4.242c-4.086 3.618-6.441 7.406-7.474 9.652zm41.01-17.306c-10.21-1.19-18.177.242-24.36 2.818c1.145 2.98 2.025 6.083 2.149 9.21c.287 6.863-4.437 11.942-9.36 15.569c-2.875 2.114-5.934 3.523-8.502 4.374c-2.053.865-4.782 1.76-6.719 1.365c-4.27-.868-6.543-4.66-3.638-13.028c1.569-4.528 6.095-11.42 13.401-17.358c-1.665-3.428-3.521-6.92-4.467-10.13c-1.864-6.326-2.427-10.15-2.427-10.15s-6.022 12.486-13.791 23.84c-.448.66-.895 1.306-1.343 1.951c1.526 3.547 2.728 7.297 2.891 11.077c.286 6.863-2.685 12.052-7.615 15.67c-2.669 1.968-5.516 3.327-7.959 4.192c-1.562.681-4.739 1.804-9.257 2.106c-2.471.169-4.848.016-6.175-.99c-1.827-1.38-2.047-3.084-1.101-5.41c.8-1.976 6.785-8.808 11.803-14.79a123.815 123.815 0 0 0 3.887-4.903l-.029-.066s.909-1.173 2.384-3.221c-1.834-3.95-4.159-8.06-5.252-11.788c-1.864-6.327-2.428-10.151-2.428-10.151s-6.104 15.649-12.463 28.14c-4.921 9.675-8.208 15.538-9.689 18.108l-.015.103s-.221.375-.602.962l-.285.476l-.008-.044c-1.651 2.438-5.355 7.214-9.037 7.214c-10.108 0-6.397-20.529-6.397-20.529s-2.955 7.605-6.286 14.13c-2.713 5.32-5.185 9.828-10.591 9.828c-1.555 0-4.02-.044-6.067-1.99c-4.643-4.411-8.193-15.612-7.497-24.287c.594-7.376 1.731-12.486 3.286-16.748a336.981 336.981 0 0 0-9.242 5.219l-5.018 2.957l.162.294c4.151 8.03 5.259 25.623-3.793 39.127c-9.051 13.512-25.9 21.733-42.316 17.168c-5.297-1.475-13.299-12.433-6.397-27.707c6.088-13.47 30.419-26.203 36.831-29.381l1.76-.97c-12.784-11.185-44.708-26.275-49.182-49.454c-1.262-6.525 1.797-22.13 20.956-40.067c16.115-15.084 38.532-26.637 59.24-33.999c34.79-12.366 71.548-5.072 77.203 17.11c5.56 21.814-13.364 47.907-37.6 57.287c-21.639 8.374-39.53 7.046-46.88 4.632c-8.355-2.745-13.255-8.258-14.45-11.37c-.47-1.219-1.278-3.266 0-3.97c.784-.434 1.099-.33 3.197 1.989c1.996 2.202 10.02 8.11 25.263 6.4c40-4.484 64.095-35.584 56.481-52.319c-5.332-11.713-36.162-16.998-74.68 2.21c-47.019 23.442-49.571 42.768-49.974 50.108c-1.101 20.192 24.902 30.813 38.972 45.829l.542.595c2.633-1.453 5.414-2.987 8.142-4.484a8176.293 8176.293 0 0 1 16.901-9.258c4.952-7.197 15-15.14 22.255-15.14c11.597 0 7.614 16.668 7.614 16.668s.235-.762.55-.77c.33-.008 1.607-2.196 5.187-.89c3.682 1.352 2.845 3.936 2.868 4.2c.044.512-4.35 15.331-6.176 24.837c-.874 4.536-.368 7.84-.11 7.84c.359 0 1.093-1.154 1.775-2.393l-.015-.037s.513-.94 1.372-2.627l.169-.353l.007.016a213.875 213.875 0 0 0 4.078-8.507c3.22-7.097 15.506-34.498 16.548-37.528c1.041-3.031 1.584-6.166 2.098-7.51c.506-1.343 4.849-2.356 9.924-2.319c5.076.037 5.591 2.203 5.626 2.65c.037.447-2.413 6.46-2.978 10.709c-.557 4.25-.021 6.37.441 9.938c.301 2.333 1.76 5.292 3.485 8.645c5.252-8.588 14.493-25.013 15.381-29.615c.608-3.148 1.584-6.165 2.098-7.51c.513-1.343 4.849-2.355 9.924-2.319c5.076.038 5.589 2.203 5.626 2.65c.037.448-2.421 6.46-2.978 10.71c-.558 4.242-.021 6.37.44 9.938c.397 3.052 2.758 7.155 5.099 11.822c6.388-3.148 13.907-5.261 22.71-5.305c3.645-.022 7.878.344 10.064 1.026V80.055c0-4.954-2.539-9.52-6.829-11.993L134.616 1.855a13.78 13.78 0 0 0-13.812 0L6.573 68.03C2.289 70.504 0 75.076 0 80.022v132.47c0 4.946 2.303 9.519 6.58 11.992l114.415 66.225a13.645 13.645 0 0 0 13.76 0l114.467-66.226c4.283-2.48 6.778-7.047 6.778-11.992v-53.536c-1.453-.428-3.58-.765-5.649-1.006zm-123.232-6.938c-2.457 2.752-6.645 9.85-8.604 15.79c-3.895 11.793-2.208 23.78.55 24.5c3.22.843 8.502-14.922 11.031-21.088c1.585-3.862 7.747-20.999 6.397-23.288c-1.054-1.791-5.42-.345-9.374 4.087zm44.563 39.752s-.777.736-.441.94c.455.272 1.438-.08 2.509-.639c3.03-1.906 9.829-6.663 9.844-13.702c0-.206-.008-.404-.022-.617a276.359 276.359 0 0 1-4.284 5.475c-2.142 2.665-7.606 8.543-7.606 8.543z"/></symbol><symbol xmlns="http://www.w3.org/2000/svg" id="logos-threejs" fill="none" stroke-linecap="square" stroke-miterlimit="10" version="1.1" viewBox="0 0 226.77 226.77"><g fill-rule="evenodd" stroke="#000" stroke-linecap="butt" stroke-linejoin="round" stroke-width="4"><path d="m63.02 200.61-43.213-174.94 173.23 49.874z" transform="translate(8.964 4.2527)"/><path d="m106.39 50.612 21.591 87.496-86.567-24.945z" transform="translate(8.964 4.2527)"/><path d="m84.91 125.03-10.724-43.465 43.008 12.346z" transform="translate(8.964 4.2527)"/><path d="m63.458 38.153 10.724 43.465-43.008-12.346z" transform="translate(8.964 4.2527)"/><path d="m149.47 62.93 10.724 43.465-43.008-12.346z" transform="translate(8.964 4.2527)"/><path d="m84.915 125.06 10.724 43.465-43.008-12.346z" transform="translate(8.964 4.2527)"/></g></symbol><symbol xmlns="http://www.w3.org/2000/svg" xmlns:xlink="http://www.w3.org/1999/xlink" id="logos-typescript" aria-hidden="true" preserveAspectRatio="xMidYMid meet" role="img" viewBox="0 0 256 256"><path fill="#007ACC" d="M0 128v128h256V0H0z"/><path fill="#FFF" d="M56.611 128.85l-.081 10.483h33.32v94.68H113.42v-94.68h33.32v-10.28c0-5.69-.122-10.444-.284-10.566c-.122-.162-20.399-.244-44.983-.203l-44.739.122l-.122 10.443z"/><path fill="#FFF" d="M206.567 118.108c6.501 1.626 11.459 4.51 16.01 9.224c2.357 2.52 5.851 7.112 6.136 8.209c.08.325-11.053 7.802-17.798 11.987c-.244.163-1.22-.894-2.317-2.52c-3.291-4.794-6.745-6.867-12.028-7.232c-7.76-.529-12.759 3.535-12.718 10.32c0 1.992.284 3.17 1.097 4.796c1.707 3.535 4.876 5.648 14.832 9.955c18.326 7.884 26.168 13.085 31.045 20.48c5.445 8.25 6.664 21.415 2.966 31.208c-4.063 10.646-14.14 17.88-28.323 20.277c-4.388.772-14.79.65-19.504-.203c-10.28-1.829-20.033-6.908-26.047-13.572c-2.357-2.601-6.949-9.387-6.664-9.875c.122-.162 1.178-.812 2.356-1.503c1.138-.65 5.446-3.13 9.509-5.486l7.355-4.267l1.544 2.276c2.154 3.291 6.867 7.802 9.712 9.305c8.167 4.308 19.383 3.698 24.909-1.26c2.357-2.153 3.332-4.388 3.332-7.68c0-2.966-.366-4.266-1.91-6.5c-1.99-2.845-6.054-5.243-17.595-10.24c-13.206-5.69-18.895-9.225-24.096-14.833c-3.007-3.25-5.852-8.452-7.03-12.8c-.975-3.616-1.22-12.678-.447-16.335c2.723-12.76 12.353-21.658 26.25-24.3c4.51-.853 14.994-.528 19.424.57z"/></symbol><symbol xmlns="http://www.w3.org/2000/svg" xmlns:xlink="http://www.w3.org/1999/xlink" id="logos-tailwind" aria-hidden="true" preserveAspectRatio="xMidYMid meet" role="img" viewBox="0 0 32 32"><path fill="#44a8b3" d="M9 13.7q1.4-5.6 7-5.6c5.6 0 6.3 4.2 9.1 4.9q2.8.7 4.9-2.1q-1.4 5.6-7 5.6c-5.6 0-6.3-4.2-9.1-4.9q-2.8-.7-4.9 2.1zm-7 8.4q1.4-5.6 7-5.6c5.6 0 6.3 4.2 9.1 4.9q2.8.7 4.9-2.1q-1.4 5.6-7 5.6c-5.6 0-6.3-4.2-9.1-4.9q-2.8-.7-4.9 2.1z"/></symbol><symbol xmlns="http://www.w3.org/2000/svg" xmlns:xlink="http://www.w3.org/1999/xlink" id="logos-mongo" aria-hidden="true" preserveAspectRatio="xMidYMid meet" role="img" viewBox="0 0 65 146"><g fill="none" fill-rule="evenodd"><path fill="#FFF" d="M35.053 142.317l-3.783-1.293s.462-19.286-6.46-20.67c-4.613-5.353.74-227.013 17.35-.739c0 0-5.722 2.86-6.737 7.752c-1.108 4.799-.37 14.95-.37 14.95z"/><path fill="#A6A385" d="M35.053 142.317l-3.783-1.293s.462-19.286-6.46-20.67c-4.613-5.353.74-227.013 17.35-.739c0 0-5.722 2.86-6.737 7.752c-1.108 4.799-.37 14.95-.37 14.95z"/><path fill="#FFF" d="M37.084 123.676s33.13-21.779 25.377-67.09c-7.474-32.943-25.1-43.74-27.038-47.893C33.301 5.74 31.27.573 31.27.573l1.385 91.634c0 .093-2.861 28.054 4.43 31.47"/><path fill="#499D4A" d="M37.084 123.676s33.13-21.779 25.377-67.09c-7.474-32.943-25.1-43.74-27.038-47.893C33.301 5.74 31.27.573 31.27.573l1.385 91.634c0 .093-2.861 28.054 4.43 31.47"/><path fill="#FFF" d="M29.333 124.875S-1.767 103.65.079 66.277C1.832 28.903 23.795 10.539 28.04 7.217c2.769-2.953 2.861-4.061 3.046-7.014c1.938 4.153 1.569 62.106 1.845 68.934c.83 26.3-1.476 50.756-3.598 55.738z"/><path fill="#58AA50" d="M29.333 124.875S-1.767 103.65.079 66.277C1.832 28.903 23.795 10.539 28.04 7.217c2.769-2.953 2.861-4.061 3.046-7.014c1.938 4.153 1.569 62.106 1.845 68.934c.83 26.3-1.476 50.756-3.598 55.738z"/></g></symbol></svg>