<svg xmlns="http://www.w3.org/2000/svg" xmlns:xlink="http://www.w3.org/1999/xlink" width="500" height="599.5" aria-hidden="true" class="absolute fill-current h-full inset-0 w-full" focusable="false" viewBox="0 0 500 599.5"><path fill="#FFF" d="M421.8 438.4h-33.2v-19c0-9.5 7.1-16.6 16.6-16.6h2.4c9.5 0 16.6 7.1 16.6 16.6l-2.4 19zm-123.2-40.3c-9.5 0-14.2 4.7-14.2 11.8v92.4c0 7.1 7.1 11.8 14.2 11.8 9.5 0 14.2-4.7 14.2-11.8V410c2.4-7.2-4.7-11.9-14.2-11.9zM500 346v175.4c0 42.7-37.9 78.2-80.6 78.2H80.6C35.5 599.5 0 564 0 521.3V343.6c0-42.7 35.5-78.2 80.6-78.2h336.5c45 2.4 82.9 37.9 82.9 80.6zM104.3 540.3V353.1H147v-28.4H35.5v30.8H71v187.2h33.2v-2.4zm125.6-156.4h-35.5v123.2c-2.4 7.1-16.6 16.6-21.3 0V383.9h-33.2v130.3c0 9.5 0 19 9.5 26.1 16.6 11.8 45-2.4 52.1-16.6V545h28.4V383.9zm109 113.7v-82.9c0-30.8-23.7-49.8-54.5-26.1V327h-35.5v213.3h28.4l2.4-14.2c37.8 33.1 59.2 9.4 59.2-28.5zm109-11.8h-26.1v16.6c0 7.1-7.1 14.2-14.2 14.2h-4.7c-7.1 0-14.2-7.1-14.2-14.2v-40.3h59.2v-21.3c0-16.6 0-33.2-2.4-42.7-4.7-30.8-45-33.2-66.4-19-7.1 4.7-11.8 11.8-14.2 19-2.4 9.5-4.7 21.3-4.7 35.5v49.8c0 85.3 99.5 73.5 87.7 2.4zM315.2 218c2.4 4.7 4.7 7.1 9.5 9.5 4.7 2.4 9.5 4.7 14.2 4.7s9.5-2.4 14.2-4.7c4.7-2.4 7.1-7.1 9.5-11.8v14.2h37.9V64h-30.8v128c0 7.1-4.7 11.8-11.8 11.8s-11.8-4.7-11.8-11.8V64h-30.8v139.8c-2.5 4.7-2.5 9.5-.1 14.2zm-118.5-92.4c0-16.6 2.4-28.4 4.7-37.9 2.4-9.5 7.1-16.6 14.2-21.3s16.6-7.1 26.1-7.1 16.6 2.4 23.7 4.7c7.1 2.4 11.8 7.1 14.2 14.2 4.7 4.7 7.1 9.5 7.1 16.6 2.4 4.7 2.4 14.2 2.4 26.1v42.7c0 14.2 0 26.1-2.4 33.2 0 7.1-4.7 14.2-7.1 19-4.7 7.1-9.5 11.8-14.2 14.2-7.1 2.4-14.2 4.7-21.3 4.7-9.5 0-16.6-2.4-21.3-4.7-7.1-2.4-11.8-4.7-16.6-9.5-2.4-7.1-4.7-11.8-7.1-19 0-7.1-2.4-19-2.4-33.2v-42.7zm30.8 64c0 9.5 7.1 16.6 14.2 16.6 9.5 0 14.2-7.1 14.2-16.6v-87.7c0-9.5-7.1-16.6-14.2-16.6-9.5 0-14.2 7.1-14.2 16.6v87.7zm-106.6 45h35.5V109l45-109h-40.3l-23.7 80.6L113.7 0H75.8l45 109v125.6z"/></svg>